<mxfile host="app.diagrams.net" modified="2023-11-06T19:36:29.697Z" agent="Mozilla/5.0 (Windows NT 10.0; Win64; x64) AppleWebKit/537.36 (KHTML, like Gecko) Chrome/118.0.0.0 Safari/537.36" etag="joFRACcD5HTTO8_gU-um" version="22.0.8" type="device">
  <diagram name="Pàgina-1" id="mhbHxmUa4zc_a_H4eHv1">
    <mxGraphModel dx="1434" dy="750" grid="1" gridSize="10" guides="1" tooltips="1" connect="1" arrows="1" fold="1" page="1" pageScale="1" pageWidth="827" pageHeight="1169" math="0" shadow="0">
      <root>
        <mxCell id="0" />
        <mxCell id="1" parent="0" />
        <mxCell id="6d2bNqNMUXDxkiYPfy11-1" value="&lt;i&gt;Local - Entorn de desenvolupament&lt;/i&gt;" style="rounded=1;whiteSpace=wrap;html=1;verticalAlign=bottom;labelPosition=center;verticalLabelPosition=top;align=center;textDirection=ltr;labelBackgroundColor=none;spacingTop=0;spacing=2;fontSize=16;fillColor=#dae8fc;strokeColor=#6c8ebf;" parent="1" vertex="1">
          <mxGeometry x="160" y="240" width="440" height="250" as="geometry" />
        </mxCell>
        <mxCell id="6d2bNqNMUXDxkiYPfy11-4" value="" style="sketch=0;aspect=fixed;pointerEvents=1;shadow=0;dashed=0;html=1;strokeColor=none;labelPosition=center;verticalLabelPosition=bottom;verticalAlign=top;align=center;fillColor=#00188D;shape=mxgraph.mscae.enterprise.internet" parent="1" vertex="1">
          <mxGeometry x="255" y="104.5" width="50" height="31" as="geometry" />
        </mxCell>
        <mxCell id="6d2bNqNMUXDxkiYPfy11-5" value="" style="sketch=0;aspect=fixed;pointerEvents=1;shadow=0;dashed=0;html=1;strokeColor=none;labelPosition=center;verticalLabelPosition=bottom;verticalAlign=top;align=center;fillColor=#00188D;shape=mxgraph.azure.computer" parent="1" vertex="1">
          <mxGeometry x="90" y="298.13" width="50" height="45" as="geometry" />
        </mxCell>
        <mxCell id="6d2bNqNMUXDxkiYPfy11-6" value="&lt;b style=&quot;font-size: 18px;&quot;&gt;Repositori Remot&lt;/b&gt;&lt;br style=&quot;font-size: 18px;&quot;&gt;&lt;i style=&quot;font-size: 18px;&quot;&gt;Remote Repository&lt;/i&gt;" style="rounded=1;whiteSpace=wrap;html=1;fontSize=18;fillColor=#d5e8d4;strokeColor=#82b366;" parent="1" vertex="1">
          <mxGeometry x="325" y="60" width="120" height="120" as="geometry" />
        </mxCell>
        <mxCell id="ZBEQYxtLiUxqlCDxY6mG-60" value="&lt;font style=&quot;font-size: 16px;&quot;&gt;&lt;font style=&quot;font-size: 16px;&quot;&gt;git remote add&lt;/font&gt;&lt;/font&gt;" style="edgeStyle=orthogonalEdgeStyle;rounded=0;orthogonalLoop=1;jettySize=auto;html=1;exitX=0.5;exitY=0;exitDx=0;exitDy=0;labelPosition=right;verticalLabelPosition=middle;align=left;verticalAlign=middle;entryX=1;entryY=0.5;entryDx=0;entryDy=0;" parent="1" source="6d2bNqNMUXDxkiYPfy11-9" target="6d2bNqNMUXDxkiYPfy11-6" edge="1">
          <mxGeometry x="-0.0345" y="-10" relative="1" as="geometry">
            <mxPoint x="520" y="165" as="targetPoint" />
            <mxPoint as="offset" />
          </mxGeometry>
        </mxCell>
        <mxCell id="6d2bNqNMUXDxkiYPfy11-9" value="&lt;b&gt;Repositori local&lt;/b&gt;&lt;i&gt;&lt;br&gt;Local Repository&lt;/i&gt;" style="rounded=1;whiteSpace=wrap;html=1;fontSize=20;fillColor=#d5e8d4;strokeColor=#82b366;" parent="1" vertex="1">
          <mxGeometry x="460" y="260" width="120" height="120" as="geometry" />
        </mxCell>
        <mxCell id="6d2bNqNMUXDxkiYPfy11-10" value="&lt;b style=&quot;border-color: var(--border-color); font-size: 18px;&quot;&gt;Àrea de preparació&lt;/b&gt;&lt;br style=&quot;border-color: var(--border-color); font-size: 18px;&quot;&gt;&lt;i style=&quot;border-color: var(--border-color); font-size: 18px;&quot;&gt;Staging Area&lt;/i&gt;" style="rounded=1;whiteSpace=wrap;html=1;fontSize=20;fillColor=#d5e8d4;strokeColor=#82b366;" parent="1" vertex="1">
          <mxGeometry x="320" y="260.63" width="120" height="120" as="geometry" />
        </mxCell>
        <mxCell id="6d2bNqNMUXDxkiYPfy11-11" value="&lt;b style=&quot;border-color: var(--border-color); font-size: 18px;&quot;&gt;Directori de treball&lt;/b&gt;&lt;br style=&quot;border-color: var(--border-color); font-size: 18px;&quot;&gt;&lt;i style=&quot;border-color: var(--border-color); font-size: 18px;&quot;&gt;Working directory&lt;/i&gt;" style="rounded=1;whiteSpace=wrap;html=1;fontSize=20;fillColor=#d5e8d4;strokeColor=#82b366;" parent="1" vertex="1">
          <mxGeometry x="180" y="260.63" width="120" height="120" as="geometry" />
        </mxCell>
        <mxCell id="6d2bNqNMUXDxkiYPfy11-12" value="" style="shape=image;imageAspect=0;aspect=fixed;verticalLabelPosition=bottom;verticalAlign=top;image=https://cdn0.iconfinder.com/data/icons/folder-line/512/folder_tree-512.png;" parent="1" vertex="1">
          <mxGeometry x="205" y="400" width="70" height="70" as="geometry" />
        </mxCell>
        <mxCell id="6d2bNqNMUXDxkiYPfy11-13" value="" style="shape=image;imageAspect=0;aspect=fixed;verticalLabelPosition=bottom;verticalAlign=top;image=https://cdn.icon-icons.com/icons2/2718/PNG/512/git_branch_icon_174485.png;" parent="1" vertex="1">
          <mxGeometry x="484.5" y="394" width="71" height="71" as="geometry" />
        </mxCell>
        <mxCell id="ZBEQYxtLiUxqlCDxY6mG-62" value="git@github.com:joapuiib/git_tutorial.git" style="text;html=1;strokeColor=none;fillColor=none;align=center;verticalAlign=middle;whiteSpace=wrap;rounded=0;fontSize=14;fontStyle=2" parent="1" vertex="1">
          <mxGeometry x="205" y="30" width="360" height="30" as="geometry" />
        </mxCell>
      </root>
    </mxGraphModel>
  </diagram>
</mxfile>
